<?xml version="1.0" encoding="utf-8"?>
<!-- Generator: Adobe Illustrator 21.0.0, SVG Export Plug-In . SVG Version: 6.00 Build 0)  -->
<svg version="1.1" id="Capa_1" xmlns="http://www.w3.org/2000/svg" xmlns:xlink="http://www.w3.org/1999/xlink" x="0px" y="0px"
	 viewBox="0 0 56 56" style="enable-background:new 0 0 56 56;" xml:space="preserve">
<style type="text/css">
	.st0{fill:#E9E9E0;}
	.st1{fill:#D9D7CA;}
	.st2{fill:#C8BDB8;}
	.st3{fill:#FFFFFF;}
</style>
<g>
	<path class="st0" d="M37,0H8C7.2,0,6.5,0.7,6.5,1.9V55c0,0.3,0.7,1,1.5,1H48c0.8,0,1.5-0.7,1.5-1V13c0-0.7-0.1-0.9-0.3-1.1
		L37.6,0.3C37.4,0.1,37.2,0,37,0z"/>
	<polygon class="st1" points="37.5,0.2 37.5,12 49.3,12 	"/>
	<path class="st2" d="M48,56H8c-0.8,0-1.5-0.7-1.5-1.5V39h43v15.5C49.5,55.3,48.8,56,48,56z"/>
	<circle class="st3" cx="18.5" cy="47" r="3"/>
	<circle class="st3" cx="28.5" cy="47" r="3"/>
	<circle class="st3" cx="38.5" cy="47" r="3"/>
</g>
<g>
	<path class="st2" d="M33.7,7.8c-1.4-1.4-3.3-2.1-5.8-2.1c-2.7,0-4.8,0.9-6.3,2.6c-1.2,1.4-1.8,3-2.1,5c-0.1,0.7,0.5,1.3,1.2,1.3
		c0.6,0,1.1-0.4,1.1-1c0.2-1.5,0.6-2.8,1.4-3.8c1-1.4,2.6-2,4.6-2c1.8,0,3.2,0.5,4.2,1.5c0.9,1,1.4,2.3,1.4,3.9
		c0,1.1-0.4,2.2-1.2,3.3c-0.3,0.3-0.9,0.9-1.8,1.8c-1.8,1.6-3,3-3.5,4.2c-0.5,0.9-0.7,1.9-0.7,3.1v1.1c0,0,0,0,0,0
		c0,0.6,0.5,1.2,1.2,1.2c0.6,0,1.2-0.5,1.2-1.2c0,0,0,0,0,0v-1.1c0-1.1,0.3-2.1,0.8-3c0.4-0.7,1-1.4,2-2.2c1.6-1.5,2.6-2.5,3-3
		c0.9-1.3,1.4-2.7,1.4-4.3C35.8,10.9,35.1,9.1,33.7,7.8z"/>
	<path class="st2" d="M27.4,29.8c-0.6,0-1,0.2-1.3,0.5c-0.4,0.3-0.6,0.8-0.6,1.4c0,0.5,0.2,1,0.6,1.3c0.4,0.4,0.8,0.6,1.3,0.6
		c0.5,0,1-0.2,1.4-0.5c0.4-0.4,0.6-0.8,0.6-1.4c0-0.6-0.2-1-0.6-1.4C28.4,30,28,29.8,27.4,29.8z"/>
</g>
</svg>
