<?xml version="1.0" encoding="utf-8"?>
<!-- Generator: Adobe Illustrator 21.0.0, SVG Export Plug-In . SVG Version: 6.00 Build 0)  -->
<svg version="1.1" id="图层_1" xmlns="http://www.w3.org/2000/svg" xmlns:xlink="http://www.w3.org/1999/xlink" x="0px" y="0px"
	 viewBox="0 0 128.1 128" style="enable-background:new 0 0 128.1 128;" xml:space="preserve">
<style type="text/css">
	.st0{fill:#6DADF6;}
	.st1{fill:#398DEE;}
</style>
<g>
	<path class="st0" d="M52.1,65.3c-0.3,0-0.6-0.3-0.6-0.6V52.9c0-0.3,0.3-0.6,0.6-0.6l5.3,0c0.2,0,0.5,0.4,0.6,0.7
		c0.3,0.8,1.1,1.4,2,1.4l6.9,0c0.3,0,0.6,0.3,0.6,0.6v9.7c0,0.3-0.3,0.6-0.6,0.6H52.1z"/>
	<path class="st1" d="M52.1,52.8l5.2,0c0.1,0.1,0.2,0.2,0.2,0.4c0.4,1,1.4,1.7,2.5,1.7h0.4h0.1H67c0,0,0.1,0,0.1,0.1v4.3v2.1v3.2
		c0,0,0,0.1-0.1,0.1H52.1c0,0-0.1,0-0.1-0.1L52.1,52.8C52.1,52.9,52.1,52.8,52.1,52.8 M52.1,51.8c-0.6,0-1.1,0.5-1.1,1.1v11.8
		c0,0.6,0.5,1.1,1.1,1.1H67c0.6,0,1.1-0.5,1.1-1.1v-3.2v-2.1v-4.3c0-0.6-0.5-1.1-1.1-1.1h-6.4h-0.1c-0.2,0-0.2,0-0.4,0
		c-0.7,0-1.4-0.5-1.6-1.1c-0.1-0.4-0.6-1-1.1-1.1L52.1,51.8L52.1,51.8z"/>
</g>
</svg>
