<?xml version="1.0" encoding="utf-8"?>
<!-- Generator: Adobe Illustrator 21.0.0, SVG Export Plug-In . SVG Version: 6.00 Build 0)  -->
<svg version="1.1" id="图层_1" xmlns="http://www.w3.org/2000/svg" xmlns:xlink="http://www.w3.org/1999/xlink" x="0px" y="0px"
	 viewBox="0 0 128 128" enable-background="new 0 0 128 128" xml:space="preserve">
<path fill="#1F2F4D" d="M62.1,119.6L48.8,107l4.9-27.6h16.3l3.7,27.8L62.1,119.6z M54.1,104.4l7.7,7.4l6.9-7.2L66,84.5h-8.8
	L54.1,104.4z"/>
<path fill="#1F2F4D" d="M80.3,70.8c11.5-6.4,19.2-18.4,19.2-32.5c0-20.5-16.5-37.1-36.7-37.1S26,17.7,26,38.3s16.5,37.1,36.7,37.1
	c0.5,0,0.8,0,1.3,0h0.3c29.6,0,55.2,21.1,57.3,45.1H60.8H6.7c1.3-16,11.8-30.1,27.8-38.4c1.5-0.8,2.2-2.7,1.3-4.2s-2.7-2.2-4.2-1.3
	C12,86,0,103.8,0,123.6v3.2h3.2h57.6h64h3.2v-3.2C128,99.1,107.3,77.2,80.3,70.8z M32,38.3C32,21.5,45.6,7.8,62.5,7.8
	s30.5,13.6,30.5,30.3S79.2,68.6,62.5,68.6S32,55,32,38.3z"/>
</svg>
