<?xml version="1.0" encoding="utf-8"?>
<!-- Generator: Adobe Illustrator 21.0.0, SVG Export Plug-In . SVG Version: 6.00 Build 0)  -->
<svg version="1.1" id="图层_1" xmlns="http://www.w3.org/2000/svg" xmlns:xlink="http://www.w3.org/1999/xlink" x="0px" y="0px"
	 viewBox="0 0 128 128" enable-background="new 0 0 128 128" xml:space="preserve">
<path fill="#1F2F4D" d="M104.4,6.1c5.2,0,9.3,4.1,9.3,9.1v89.2l0.9-2.1l-20.2,20.6l2.2-0.9H23.6c-5.1,0-9.3-4.1-9.3-9.1V3l-3.1,3
	H104.4z M8,0v3v109.7c0,8.4,7,15.2,15.6,15.2h73.1H98l0.9-0.9l20.2-20.6l0.9-0.9v-1.2V15.2C120,6.8,113,0,104.4,0H11.1H8z"/>
<path fill="#1F2F4D" d="M92,88.4c-5.2,0-9.3,4.1-9.3,9.1v18.3c0,1.7,1.4,3,3.1,3c1.7,0,3.1-1.4,3.1-3V97.5c0-1.7,1.4-3,3.1-3h14
	c1.7,0,3.1-1.4,3.1-3c0-1.7-1.4-3-3.1-3H92z"/>
<path fill="#1F2F4D" d="M96.9,27.4c1.7,0,3.1-1.4,3.1-3s-1.4-3-3.1-3h-64c-1.7,0-3.1,1.4-3.1,3s1.4,3,3.1,3H96.9z"/>
<path fill="#1F2F4D" d="M96.9,45.7c1.7,0,3.1-1.4,3.1-3c0-1.7-1.4-3-3.1-3h-64c-1.7,0-3.1,1.4-3.1,3c0,1.7,1.4,3,3.1,3H96.9z"/>
<path fill="#1F2F4D" d="M96.9,67c1.7,0,3.1-1.4,3.1-3c0-1.7-1.4-3-3.1-3h-64c-1.7,0-3.1,1.4-3.1,3c0,1.7,1.4,3,3.1,3H96.9z"/>
</svg>
