<?xml version="1.0" encoding="utf-8"?>
<!-- Generator: Adobe Illustrator 21.0.0, SVG Export Plug-In . SVG Version: 6.00 Build 0)  -->
<svg version="1.1" id="图层_1" xmlns="http://www.w3.org/2000/svg" xmlns:xlink="http://www.w3.org/1999/xlink" x="0px" y="0px"
	 viewBox="0 0 128 128" enable-background="new 0 0 128 128" xml:space="preserve">
<path fill="#1F2F4D" d="M97.1,11.7l-19,9.5l4.6,9.1c-0.2,0.1-0.4,0.2-0.6,0.4c-0.6,0.5-2.6,1.8-4.2,2.1c-3.2,0.4-5.1-1.2-7.8-0.3
	c-1.5,0.4-3.9,1.8-6.4,3.7c-2.3-1.3-6.3-3.4-8.6-3.7c-1.9-0.2-5.3,0.4-6.2,0.3c-1.4-0.1-3.2-1.2-4-1.7l4.9-9.8l-18.9-9.5L0,73.1
	l19,9.5l23.5-46.7c1.3,0.8,4,2.2,6.4,2.2c2,0,3.2-0.6,5.5-0.3c0.8,0.1,2.7,0.9,4.7,2c-3.7,3-7.2,6.2-10.7,9.4
	c-3.8,4.1-3.9,9.1-0.9,12.6c3.4,4.3,7.5,3.2,11,1.7l10.1-5.2C70,57.6,71,57,71,57l21.3,18.4c0.7,0.6,1.2,1.5,1.3,2.5
	c0.1,1-0.2,1.9-0.9,2.7c-2.3,2.7-4,1.3-4,1.3l-4.1-3.2L81.3,83c0,0,3.1,2.3,4.1,3.2c0.6,0.5,0.6,1,0.6,1.3c-0.1,0.8-0.5,1.7-1.3,2.6
	c-1.2,1.5-2.2,1.9-2.8,1.9c-0.6,0-1-0.4-1.2-0.5c-1.6-1.2-3.2-2.4-4.9-3.6l-3.2,4.3l4.7,3.5c0.6,0.5,0.6,1,0.6,1.4
	c-0.1,0.7-0.6,1.7-1.4,2.7c-0.9,1-1.7,1.6-2.5,1.9c-0.5,0.1-0.8,0.2-1.5-0.4l-5.8-4.7l-3.4,4.2l5.5,4.5c0.7,0.6,0.8,1.1,0.7,1.5
	c-0.1,0.8-0.6,1.7-1.4,2.7c-0.6,0.7-1.5,1.2-2.5,1.3c-1,0.1-1.9-0.2-2.8-1L37,88c-1.2-0.9-2.9-0.6-3.8,0.5s-0.6,2.9,0.5,3.8
	L59.5,114c1.6,1.4,3.7,2.2,5.8,2.2c3.3-0.1,5.2-1.5,6.9-3.2c2.4-2.4,2.7-5.9,2.7-6c0.2-0.1,4.1-1.9,5.6-3.7c2.3-2.6,2.7-5.2,2.7-6
	c1.9-0.4,3.8-1.6,5.5-3.6c1.6-1.9,2.5-4,2.6-6c0.1,0,3.4-1,5.4-3.6c0.9-1.1,1.5-2.3,1.8-3.6c0.1-0.1,7-4.7,7-4.7l3.4,6.7l19-9.5
	L97.1,11.7z M16.6,75.4l-9.3-4.7l26-51.7l9.3,4.7L16.6,75.4z M98.1,74.4c-0.5-1.2-1.3-2.2-2.3-3L73.2,51.8c-0.8-0.7-2-0.9-3-0.4
	c-0.4,0.2-10.1,5.3-13.5,7.2c-1.8,1.1-4,1.2-5.3-0.7c-1.2-1.8-0.7-3.5,0.5-4.7c7.4-7,17-14.9,19.4-15.5c2.6-0.7,4,0.7,7.5,0.4
	c2.7-0.2,5.4-2.3,6.2-2.9l18,35.8C103.2,71,98.1,74.4,98.1,74.4z M85.4,23.6l9.3-4.7l26.1,51.7l-9.3,4.7L85.4,23.6z"/>
</svg>
