<?xml version="1.0" encoding="utf-8"?>
<!-- Generator: Adobe Illustrator 21.0.0, SVG Export Plug-In . SVG Version: 6.00 Build 0)  -->
<svg version="1.1" id="图层_1" xmlns="http://www.w3.org/2000/svg" xmlns:xlink="http://www.w3.org/1999/xlink" x="0px" y="0px"
	 viewBox="0 0 153.5 128" enable-background="new 0 0 153.5 128" xml:space="preserve">
<path fill="#1F2F4D" d="M153.6,38.3c0-10.6-8.6-19.2-19.2-19.2c0,0,0,0,0,0H76.9l2.7,1.1l-19.4-19L59,0H0.1V108
	c0,10.7,8.6,19.3,19.2,19.3h113.3c2.1,0,3.8-1.7,3.8-3.9c0-2.1-1.7-3.9-3.8-3.9H19.3c-6.3,0-11.5-5.2-11.5-11.6V3.9L3.9,7.7h53.5
	l-2.7-1.1l19.4,19l1.1,1.1h59.1c6.4,0,11.5,5.1,11.5,11.5c0,0,0,0,0,0v68c0,2.1,1.7,3.9,3.8,3.9c2.1,0,3.8-1.7,3.8-3.9L153.6,38.3
	L153.6,38.3z M145.9,59.8l0-7.7H7.8v7.7H145.9L145.9,59.8z"/>
</svg>
