<?xml version="1.0" encoding="utf-8"?>
<!-- Generator: Adobe Illustrator 21.0.0, SVG Export Plug-In . SVG Version: 6.00 Build 0)  -->
<svg version="1.1" id="Capa_1" xmlns="http://www.w3.org/2000/svg" xmlns:xlink="http://www.w3.org/1999/xlink" x="0px" y="0px"
	 viewBox="0 0 56 56" style="enable-background:new 0 0 56 56;" xml:space="preserve">
<style type="text/css">
	.st0{fill:#E9E9E0;}
	.st1{fill:#D9D7CA;}
	.st2{fill:#7D6599;}
	.st3{fill:#FFFFFF;}
</style>
<path class="st0" d="M37,0H8C7.2,0,6.5,0.7,6.5,1.9V55c0,0.3,0.7,1,1.5,1H48c0.8,0,1.5-0.7,1.5-1V13c0-0.7-0.1-0.9-0.3-1.1L37.6,0.3
	C37.4,0.1,37.2,0,37,0z"/>
<polygon class="st1" points="37.5,0.2 37.5,12 49.3,12 "/>
<path class="st2" d="M48,56H8c-0.8,0-1.5-0.7-1.5-1.5V39h43v15.5C49.5,55.3,48.8,56,48,56z"/>
<path class="st2" d="M35.7,15c-0.6-0.8-1.3-1.5-2.3-2.4c-3.9-3.1-4.8-6.3-4.9-6.7V5c0-0.6-0.4-1-1-1s-1,0.4-1,1v1v8.4v9.1h-3.7
	c-3.9,0-6.3,2-6.3,5.1c0,3.5,2.2,5.7,5.7,5.7c3.5,0,6.3-2.8,6.3-6.3V16.5l0.3,0.2c0.3,0.3,0.9,0.7,1.5,1.2c2.3,1.7,6.2,4.6,5.2,7.8
	c0,0.1,0,0.2,0,0.3c0,0.4,0.3,0.8,0.7,1c0.1,0,0.2,0,0.3,0c0.4,0,0.8-0.3,1-0.7C39.1,20.9,37,16.9,35.7,15z M26.5,27.9
	c0,2.4-1.9,4.3-4.3,4.3c-2.4,0-3.7-1.4-3.7-3.7c0-2.6,2.3-3.1,4.3-3.1h3.7V27.9z M31.5,16.3c-0.6-0.4-1.1-0.8-1.4-1.1l-1.6-1.3v-3.5
	c0.8,1.2,2,2.5,3.6,3.8c0.9,0.7,1.5,1.3,1.9,1.9c0.7,1,1.4,2.3,1.8,4C34.5,18.5,32.7,17.2,31.5,16.3z"/>
<g>
	<path class="st3" d="M22.4,42.9h1.7V53h-1.7v-6.9l-2.3,5.6h-1.4l-2.3-5.6V53h-1.7V42.9h1.7l3,6.9L22.4,42.9z"/>
	<path class="st3" d="M28.2,53h-1.6V42.9h2.9c0.4,0,0.9,0.1,1.3,0.2s0.8,0.3,1.1,0.6s0.6,0.6,0.8,1S33,45.6,33,46
		c0,0.5-0.1,1-0.3,1.4s-0.4,0.8-0.7,1s-0.7,0.5-1.1,0.7s-0.9,0.2-1.4,0.2h-1.2L28.2,53L28.2,53z M28.2,44.2v4h1.5
		c0.2,0,0.4,0,0.6-0.1s0.4-0.2,0.5-0.3s0.3-0.4,0.4-0.6s0.1-0.6,0.1-1c0-0.2,0-0.4-0.1-0.6s-0.1-0.4-0.3-0.6s-0.3-0.4-0.6-0.5
		s-0.6-0.2-1-0.2L28.2,44.2L28.2,44.2z"/>
	<path class="st3" d="M38.6,47.7c0.2,0,0.4,0.1,0.6,0.2s0.4,0.3,0.6,0.5s0.4,0.4,0.5,0.7s0.2,0.6,0.2,1c0,0.5-0.1,0.8-0.2,1.2
		s-0.3,0.6-0.5,0.8s-0.4,0.4-0.7,0.5s-0.5,0.2-0.7,0.3S38,53,37.8,53s-0.3,0-0.5,0c-0.8,0-1.4-0.1-1.8-0.2s-0.8-0.2-0.9-0.3l0.4-1.2
		c0.1,0,0.2,0.1,0.2,0.2s0.2,0.1,0.3,0.2s0.3,0.1,0.6,0.1s0.6,0,1,0c0.6,0,1.1-0.2,1.4-0.5s0.5-0.8,0.5-1.3c0-0.5-0.1-0.9-0.4-1.2
		s-0.7-0.5-1.2-0.5h-1.4h0l0-1.1h0.9c0.2,0,0.4,0,0.6,0s0.4-0.1,0.6-0.2s0.3-0.2,0.5-0.5s0.2-0.5,0.2-0.9c0-0.2,0-0.3,0-0.5
		s-0.1-0.4-0.2-0.5s-0.3-0.3-0.5-0.4s-0.6-0.1-1-0.1s-0.8,0-1,0.1s-0.4,0.1-0.6,0.2l-0.5-1.2c0.2-0.1,0.5-0.1,0.8-0.2
		s0.8-0.1,1.4-0.1c0.4,0,0.8,0.1,1.2,0.2s0.7,0.3,1,0.5s0.5,0.5,0.7,0.9s0.3,0.8,0.3,1.3c0,0.3,0,0.5-0.2,0.8s-0.2,0.4-0.4,0.6
		s-0.3,0.3-0.5,0.4S38.8,47.7,38.6,47.7z"/>
</g>
</svg>
