<?xml version="1.0" encoding="utf-8"?>
<!-- Generator: Adobe Illustrator 21.0.0, SVG Export Plug-In . SVG Version: 6.00 Build 0)  -->
<svg version="1.1" id="图层_1" xmlns="http://www.w3.org/2000/svg" xmlns:xlink="http://www.w3.org/1999/xlink" x="0px" y="0px"
	 viewBox="0 0 128.1 128" enable-background="new 0 0 128.1 128" xml:space="preserve">
<path fill="#ABAFB2" d="M58.5,117.2C58.5,117.2,58.5,117.2,58.5,117.2c1.4,1.4,3.3,2.2,5.2,2.2c0,0,0.1,0,0.1,0c2,0,3.8-0.8,5.2-2.2
	l41.8-42.5c1.2-1.2,1.2-3.2,0-4.3c-1.2-1.2-3.2-1.2-4.3,0L67,110.4l0-99.3C67,9.4,65.7,8,64,8s-3.1,1.4-3.1,3.1v99.8L20.8,70.1
	c-1.2-1.2-3.1-1.2-4.3,0c-1.2,1.2-1.2,3.1,0,4.3L58.5,117.2z"/>
</svg>
