<?xml version="1.0" encoding="utf-8"?>
<!-- Generator: Adobe Illustrator 21.0.0, SVG Export Plug-In . SVG Version: 6.00 Build 0)  -->
<svg version="1.1" id="图层_1" xmlns="http://www.w3.org/2000/svg" xmlns:xlink="http://www.w3.org/1999/xlink" x="0px" y="0px"
	 viewBox="0 0 128 128" enable-background="new 0 0 128 128" xml:space="preserve">
<path fill="#D6D6D6" d="M91.5,22.6H36.7c-5,0-9.1,4.1-9.1,9.1v3h73.1v-3C100.6,26.7,96.5,22.6,91.5,22.6 M75.5,16.5l1.3,9.6H51.3
	l1.3-9.6H75.5 M76.3,10.4H51.9c-2.5,0-4.9,2-5.2,4.5l-1.8,12.7c-0.3,2.5,1.4,4.5,3.9,4.5h30.5c2.5,0,4.3-2,3.9-4.5l-1.8-12.7
	C81.1,12.4,78.8,10.4,76.3,10.4 M93,40.8H35.1c-3.3,0-5.8,2.7-5.5,6.1l5,54.9c0.3,3.3,3.3,6.1,6.6,6.1h45.7c3.3,0,6.3-2.7,6.6-6.1
	l5-54.9C98.9,43.6,96.4,40.8,93,40.8 M51.9,95.7h-9.1l-3-42.6h12.2L51.9,95.7L51.9,95.7z M70.2,95.7H58V53h12.2V95.7L70.2,95.7z
	 M85.4,95.7h-9.1V53h12.2L85.4,95.7L85.4,95.7z"/>
</svg>
