<?xml version="1.0" encoding="utf-8"?>
<!-- Generator: Adobe Illustrator 21.0.0, SVG Export Plug-In . SVG Version: 6.00 Build 0)  -->
<svg version="1.1" id="图层_1" xmlns="http://www.w3.org/2000/svg" xmlns:xlink="http://www.w3.org/1999/xlink" x="0px" y="0px"
	 viewBox="0 0 128.4 128" enable-background="new 0 0 128.4 128" xml:space="preserve">
<path fill="#CCCCCC" d="M55.5,78.7L55.5,78.7c-0.4-0.4-0.4-1,0-1.4l9.9-9.9c0.4-0.4,1-0.4,1.4,0l0,0c0.4,0.4,0.4,1,0,1.4l-9.9,9.9
	C56.6,79,55.9,79,55.5,78.7z"/>
<path fill="#CCCCCC" d="M55.5,67.3L55.5,67.3c-0.4,0.4-0.4,1,0,1.4l9.9,9.9c0.4,0.4,1,0.4,1.4,0l0,0c0.4-0.4,0.4-1,0-1.4l-9.9-9.9
	C56.6,67,55.9,67,55.5,67.3z"/>
</svg>
