<?xml version="1.0" encoding="utf-8"?>
<!-- Generator: Adobe Illustrator 21.0.0, SVG Export Plug-In . SVG Version: 6.00 Build 0)  -->
<svg version="1.1" id="图层_1" xmlns="http://www.w3.org/2000/svg" xmlns:xlink="http://www.w3.org/1999/xlink" x="0px" y="0px"
	 viewBox="0 0 128.4 128" enable-background="new 0 0 128.4 128" xml:space="preserve">
<path fill="#ABAFB2" d="M124.3,45.7H4c-2.2,0-4-1.8-4-4s1.8-4,4-4h110.7L95.5,18.5c-1.6-1.6-1.6-4.1,0-5.7c1.6-1.6,4.1-1.6,5.7,0
	l26,26c1.1,1.1,1.5,2.9,0.9,4.4C127.4,44.7,125.9,45.7,124.3,45.7z"/>
<path fill="#ABAFB2" d="M30,116.3c-1,0-2-0.4-2.8-1.2l-26-26C0,88-0.3,86.3,0.3,84.8c0.6-1.5,2.1-2.5,3.7-2.5h120.3c2.2,0,4,1.8,4,4
	s-1.8,4-4,4l-110.7,0l19.2,19.2c1.6,1.6,1.6,4.1,0,5.7C32,115.9,31,116.3,30,116.3z"/>
</svg>
