<?xml version="1.0" encoding="utf-8"?>
<!-- Generator: Adobe Illustrator 21.0.0, SVG Export Plug-In . SVG Version: 6.00 Build 0)  -->
<svg version="1.1" id="图层_1" xmlns="http://www.w3.org/2000/svg" xmlns:xlink="http://www.w3.org/1999/xlink" x="0px" y="0px"
	 viewBox="0 0 128 128" enable-background="new 0 0 128 128" xml:space="preserve">
<path fill="#ABAFB2" d="M4.3,28.9H1.1V32v74.7c0,8.7,7,15.8,15.6,15.8H116h3.1v-3.2V58.9c0-1.7-1.4-3.2-3.1-3.2s-3.1,1.4-3.1,3.2
	v60.5l3.1-3.2H16.8c-5.2,0-9.4-4.2-9.4-9.5V32l-3.1,3.2h70.6c1.7,0,3.1-1.4,3.1-3.2c0-1.7-1.4-3.2-3.1-3.2H4.3z M54.6,74.2L54,75
	l0,1.1l-0.5,18.7l-0.1,4.6l4.3-1.5l18-6.5l0.9-0.3l0.6-0.7l48.3-63.9l1.9-2.5l-2.5-1.9L108.7,9.7l-2.4-1.8l-1.9,2.4L54.6,74.2z
	 M104.9,14.8L121,27l-0.6-4.4L72.1,86.4l1.4-1.1l-18,6.5l4.2,3.1l0.5-18.7l-0.7,1.9l49.7-63.9L104.9,14.8z M111.4,38.8l3.7-5.1
	l-14-10.2l-3.7,5.1L111.4,38.8z"/>
</svg>
