<svg id="图层_1" data-name="图层 1" xmlns="http://www.w3.org/2000/svg" viewBox="0 0 20 22"><defs><style>.cls-1{fill:#445e97;}</style></defs><title>删除</title><path class="cls-1" d="M15.59,19.21A1.23,1.23,0,0,1,16.84,18h6.25V16.8a1.23,1.23,0,0,1,1.25-1.2h2.5a1.23,1.23,0,0,1,1.25,1.2V18h6.25a1.23,1.23,0,0,1,1.25,1.2v1.2h-20Zm18.75,3.61V36.39a1.23,1.23,0,0,1-1.25,1.2h-15a1.23,1.23,0,0,1-1.25-1.2V21.62h17.5Zm-12.5,2.41a1.25,1.25,0,0,0-2.5,0V34a1.25,1.25,0,0,0,2.5,0Zm5,0a1.25,1.25,0,0,0-2.5,0V34a1.25,1.25,0,0,0,2.5,0Zm5,0a1.25,1.25,0,0,0-2.5,0V34a1.25,1.25,0,0,0,2.5,0Zm0,0" transform="translate(-15.59 -15.6)"/></svg>