<?xml version="1.0" encoding="utf-8"?>
<!-- Generator: Adobe Illustrator 21.0.0, SVG Export Plug-In . SVG Version: 6.00 Build 0)  -->
<svg version="1.1" id="图层_1" xmlns="http://www.w3.org/2000/svg" xmlns:xlink="http://www.w3.org/1999/xlink" x="0px" y="0px"
	 viewBox="0 0 128.1 128" enable-background="new 0 0 128.1 128" xml:space="preserve">
<path fill="#ABAFB2" d="M70.9,102.7c-0.4,0-0.9-0.1-1.3-0.3c-1.1-0.5-1.8-1.6-1.8-2.8V78.5c-3.7,0.3-10.4,1-18.2,2.8
	c-6.9,1.6-13.3,3.8-18.9,6.5c-7,3.3-12.9,7.4-17.6,12.2c-0.9,0.9-2.4,1.2-3.6,0.6c-1.2-0.6-1.9-1.9-1.7-3.2c0-0.3,1.1-7.6,5.3-17.1
	c2.5-5.5,5.5-10.7,9-15.3c4.4-5.8,9.6-10.7,15.4-14.6c1.2-0.9,13.7-10,30.2-12.5V19.2c0-1.2,0.7-2.3,1.8-2.8
	c1.1-0.5,2.4-0.3,3.3,0.5L118.6,57c0.7,0.6,1,1.4,1,2.3s-0.4,1.7-1,2.3L73,101.9C72.4,102.4,71.7,102.7,70.9,102.7z M70.9,72.2
	c0.8,0,1.6,0.3,2.2,0.9c0.6,0.6,0.9,1.4,0.9,2.2v17.6l37.9-33.5L74,26v14.6c0,1.6-1.2,2.9-2.8,3.1c-16.6,1.7-29.8,11.6-29.9,11.7
	c0,0-0.1,0.1-0.1,0.1c-5.3,3.6-10,8.1-14,13.3c-3.2,4.2-6,8.9-8.3,14c-1,2.3-1.8,4.4-2.5,6.3c3.5-2.6,7.5-4.9,11.8-6.9
	c6.1-2.9,12.9-5.2,20.2-6.9C60.9,72.3,70.5,72.2,70.9,72.2C70.9,72.2,70.9,72.2,70.9,72.2z"/>
</svg>
