<svg id="图层_1" data-name="图层 1" xmlns="http://www.w3.org/2000/svg" viewBox="0 0 17 22"><defs><style>.cls-1{fill:#445e97;}</style></defs><title>上传</title><path class="cls-1" d="M26.54,15.32a.73.73,0,0,0-1.08,0l-7.52,8.14c-.81.88-.47,1.59.76,1.59h1.75a1.43,1.43,0,0,1,1.46,1.39v4.79a1.43,1.43,0,0,0,1.46,1.39h5.24a1.43,1.43,0,0,0,1.46-1.39V26.44a1.43,1.43,0,0,1,1.46-1.39H33.3c1.23,0,1.57-.72.76-1.59l-7.52-8.14" transform="translate(-17.5 -15.08)"/><rect class="cls-1" x="0.04" y="19" width="16.92" height="3" rx="1.46" ry="1.46"/></svg>