<svg id="图层_1" data-name="图层 1" xmlns="http://www.w3.org/2000/svg" viewBox="0 0 24 21"><defs><style>.cls-1{fill:#445e97;}</style></defs><title>新建文件夹</title><path class="cls-1" d="M38,34.6V20.39a1.62,1.62,0,0,0-1.81-1.74s-8.64,0-8.07,0a1.27,1.27,0,0,1-.93-.31s-.43-.71-1.21-1.84a1.83,1.83,0,0,0-1.75-1h-8a2.09,2.09,0,0,0-2.24,2V34.49c0,2.28,1.79,2,1.79,2H36.34A1.59,1.59,0,0,0,38,34.6Zm-6-7.41a1.2,1.2,0,0,1-1.22,1.18H27.17V32a1.2,1.2,0,0,1-2.4,0V28.36H21.2A1.2,1.2,0,0,1,20,27.19v0A1.2,1.2,0,0,1,21.2,26h3.58V22.32a1.2,1.2,0,0,1,2.4,0V26h3.58A1.2,1.2,0,0,1,32,27.14Z" transform="translate(-14 -15.5)"/></svg>